HIERARCHY
ROOT root
{
	OFFSET	0	13.1	24.9
	CHANNELS 6  Xposition Yposition Zposition Xrotation Yrotation Zrotation
	JOINT spine_1
	{
		OFFSET	0	9.99999	0
		CHANNELS 3  Xrotation Yrotation Zrotation
		JOINT spine_2
		{
			OFFSET	0	112	-10
			CHANNELS 3  Xrotation Yrotation Zrotation
			JOINT spine_3
			{
				OFFSET	0	206.5	19.3
				CHANNELS 3  Xrotation Yrotation Zrotation
				JOINT spine_4
				{
					OFFSET	0	110.4	14.6
					CHANNELS 3  Xrotation Yrotation Zrotation
					JOINT neck_1
					{
						OFFSET	0	71.8	-50.3
						CHANNELS 3  Xrotation Yrotation Zrotation
						JOINT neck_2
						{
							OFFSET	0	86.2	-25.8
							CHANNELS 3  Xrotation Yrotation Zrotation
							JOINT head_ee
							{
								OFFSET	0	179.8	-8.7
								CHANNELS 3  Xrotation Yrotation Zrotation
								End Site
								{
									OFFSET	1	0	0
								}
							}
						}
					}
					JOINT left_clavicle
					{
						OFFSET	-43.2	22.4	-70.8
						CHANNELS 3  Xrotation Yrotation Zrotation
						JOINT left_shoulder
						{
							OFFSET	-93.9	-5.79999	48.7
							CHANNELS 3  Xrotation Yrotation Zrotation
							JOINT left_elbow
							{
								OFFSET	-291.4	-30.8	15.2
								CHANNELS 3  Xrotation Yrotation Zrotation
								JOINT left_lowarm_twist
								{
									OFFSET	-110.7	-3.89999	13.6
									CHANNELS 3  Xrotation Yrotation Zrotation
									JOINT left_hand
									{
										OFFSET	-110.7	-3.89999	13.6
										CHANNELS 3  Xrotation Yrotation Zrotation
										JOINT left_ee
										{
											OFFSET	-80.8	-5.10001	12.1
											CHANNELS 3  Xrotation Yrotation Zrotation
											End Site
											{
												OFFSET	1	0	0
											}
										}
									}
								}
							}
						}
					}
					JOINT right_clavicle
					{
						OFFSET	43.2	22.4	-70.8
						CHANNELS 3  Xrotation Yrotation Zrotation
						JOINT right_shoulder
						{
							OFFSET	93.9	-5.79999	48.7
							CHANNELS 3  Xrotation Yrotation Zrotation
							JOINT right_elbow
							{
								OFFSET	291.4	-30.8	15.2
								CHANNELS 3  Xrotation Yrotation Zrotation
								JOINT right_lowarm_twist
								{
									OFFSET	110.7	-3.89999	13.6
									CHANNELS 3  Xrotation Yrotation Zrotation
									JOINT right_hand
									{
										OFFSET	110.7	-3.89999	13.6
										CHANNELS 3  Xrotation Yrotation Zrotation
										JOINT right_ee
										{
											OFFSET	80.8	-5.10001	12.1
											CHANNELS 3  Xrotation Yrotation Zrotation
											End Site
											{
												OFFSET	1	0	0
											}
										}
									}
								}
							}
						}
					}
				}
			}
		}
	}
	JOINT left_hip
	{
		OFFSET	-82.8	-127.5	0.300001
		CHANNELS 3  Xrotation Yrotation Zrotation
		JOINT left_knee
		{
			OFFSET	-28.2	-396.7	2.2
			CHANNELS 3  Xrotation Yrotation Zrotation
			JOINT left_ankle
			{
				OFFSET	-11.7	-411.3	35.4
				CHANNELS 3  Xrotation Yrotation Zrotation
				JOINT left_toes
				{
					OFFSET	0	-60	-88.6
					CHANNELS 3  Xrotation Yrotation Zrotation
					JOINT left_foot_ee
					{
						OFFSET	-22.5	-16.5	-42.2
						CHANNELS 3  Xrotation Yrotation Zrotation
						End Site
						{
							OFFSET	1	0	0
						}
					}
				}
			}
		}
	}
	JOINT right_hip
	{
		OFFSET	82.8	-127.5	0.300001
		CHANNELS 3  Xrotation Yrotation Zrotation
		JOINT right_knee
		{
			OFFSET	28.2	-396.7	2.2
			CHANNELS 3  Xrotation Yrotation Zrotation
			JOINT right_ankle
			{
				OFFSET	11.7	-411.3	35.4
				CHANNELS 3  Xrotation Yrotation Zrotation
				JOINT right_toes
				{
					OFFSET	0	-60	-88.6
					CHANNELS 3  Xrotation Yrotation Zrotation
					JOINT right_foot_ee
					{
						OFFSET	22.5	-16.5	-42.2
						CHANNELS 3  Xrotation Yrotation Zrotation
						End Site
						{
							OFFSET	1	0	0
						}
					}
				}
			}
		}
	}
}
MOTION
Frames: 16
Frame Time: 0.02
822.164 659.982 -1511.01 -40.9301 86.3071 45.399 2.74745 -0.465211 -1.51786 2.74866 -0.367695 -1.54438 2.75836 -0.111306 -1.58363 2.75504 -0.359984 -1.54619 -16.0412 -3.14972 0.23548 -16.0783 -6.17332 -0.878251 -0.0 0.0 -0.0 5.21013 20.0529 10.0376 8.66293 -39.275 67.5439 2.05218 -45.466 0.859911 -49.7016 -4.03686 4.66721 2.14513 10.0513 18.2391 -0.0 0.0 -0.0 8.14679 -20.7075 -14.4448 -23.7316 0.0728013 -58.5017 0.220186 6.22501 -0.011973 -45.0204 3.50021 -4.39747 5.9449 -32.2149 -50.9527 0.0 0.0 0.0 -10.0958 19.3989 -11.1256 0.200978 -0.00832813 -0.0297173 31.7079 -32.2524 -5.16652 4.48944 -0.0 -0.0 -0.0 0.0 -0.0 25.7531 11.0941 -5.37587 6.66819 0.331434 0.968653 -7.24966 -8.25815 -1.07643 -20.3737 0.0 0.0 0.0 0.0 0.0 
801.468 664.466 -1518.27 -46.9451 87.3871 50.9398 2.71449 -0.631136 -1.41476 2.71545 -0.539842 -1.45204 2.72903 -0.295473 -1.52069 2.72619 -0.531905 -1.45497 -14.7794 -1.75001 0.746236 -14.7898 -3.79102 0.133371 -0.0 0.0 -0.0 4.61593 21.2575 9.12578 6.65227 -40.3097 67.7668 1.93505 -43.7834 0.77762 -50.4161 -4.12063 4.70449 2.37191 8.67328 19.3106 -0.0 0.0 -0.0 9.27529 -22.2361 -15.9577 -24.6152 -0.166345 -56.3555 0.228756 6.46529 -0.0129203 -44.7481 3.46969 -4.38044 5.69754 -32.1178 -48.7086 0.0 0.0 0.0 -11.2031 18.725 -11.0348 -0.409644 0.0166508 0.0606591 27.6997 -31.3275 -4.5903 6.47443 -0.0 -0.0 -0.0 0.0 -0.0 25.6698 11.2465 -5.39905 1.74042 0.0755723 0.256365 -5.95233 -8.72973 -0.881853 -20.3301 0.0 0.0 0.0 0.0 0.0 
777.415 666.858 -1530.8 -52.0718 86.8734 55.5021 2.65893 -0.448768 -1.31141 2.65981 -0.364418 -1.3373 2.6682 -0.139619 -1.37901 2.66572 -0.355636 -1.33966 -14.0906 0.279645 0.307842 -14.0904 0.345937 0.380319 -0.0 0.0 -0.0 3.87803 22.4627 8.05092 5.94806 -41.0049 67.7606 1.75153 -40.9431 0.653924 -50.8817 -4.17547 4.72822 2.67549 4.11001 19.7752 -0.0 0.0 -0.0 9.88679 -23.9884 -16.5721 -24.8978 -0.0834163 -55.739 0.280276 7.90462 -0.0193645 -45.0187 3.50001 -4.39736 5.64211 -31.5175 -48.2791 0.0 0.0 0.0 -11.4128 18.0741 -11.2752 -1.26836 0.0501434 0.188185 25.9139 -29.732 -4.25752 8.61518 -0.0 -0.0 -0.0 0.0 -0.0 25.5329 11.2259 -5.87327 -0.0420791 -0.00173023 -0.00622563 -6.23918 -9.26537 -0.924869 -19.8096 0.0 0.0 0.0 0.0 0.0 
758.012 669.737 -1541.75 -52.7677 86.868 55.9299 2.69823 -0.297182 -1.32189 2.69918 -0.212472 -1.33812 2.70396 0.00959105 -1.35484 2.70146 -0.204482 -1.33936 -11.1843 2.92597 -0.274927 -11.1983 5.7127 0.518014 -0.0 0.0 -0.0 3.5182 23.7094 7.5503 3.3796 -41.5351 66.9182 1.65512 -39.3451 0.59176 -50.5966 -4.14186 4.71374 2.73576 0.630855 18.862 -0.0 0.0 -0.0 10.3462 -24.9874 -17.0516 -24.979 0.118518 -55.4792 0.258094 7.28605 -0.0164326 -47.0737 3.73288 -4.52117 5.14281 -31.7039 -44.0866 0.0 0.0 0.0 -11.0742 17.9009 -10.9219 -2.24154 0.0857819 0.333284 24.0906 -27.1568 -3.88119 11.4225 -0.0 -0.0 -0.0 0.0 -0.0 25.0449 10.8241 -6.87132 -2.05642 -0.0791927 -0.305637 -1.5133 -14.5993 -0.223507 -19.1549 0.0 0.0 0.0 0.0 0.0 
740.58 673.688 -1548.36 -57.623 86.6896 60.7659 2.73689 -0.255866 -1.26743 2.73776 -0.174704 -1.28114 2.74149 0.0366775 -1.29248 2.73919 -0.167888 -1.28205 -11.0868 3.67691 -0.173572 -11.1079 7.06385 0.812062 -0.0 0.0 -0.0 2.95698 24.5848 6.79687 1.22337 -42.733 66.3828 1.55456 -37.5966 0.529192 -50.5045 -4.13103 4.70903 2.97245 -1.43463 19.7135 -0.0 0.0 -0.0 10.6333 -25.4629 -17.3691 -23.9416 1.26192 -55.0755 0.313178 8.8187 -0.0241491 -46.2579 3.63991 -4.47302 5.18879 -31.8625 -44.4468 0.0 0.0 0.0 -10.8606 17.5377 -11.4191 -3.18183 0.117867 0.474023 21.9251 -27.5494 -3.59612 12.881 -0.0 -0.0 -0.0 0.0 -0.0 24.7383 10.7662 -7.10119 -2.76799 -0.104031 -0.412017 -2.13187 -13.4107 -0.314649 -19.6181 0.0 0.0 0.0 0.0 0.0 
723.455 676.526 -1557.72 -61.3696 86.0887 63.9303 2.77313 -0.155574 -1.25897 2.77401 -0.0751537 -1.26631 2.77545 0.13175 -1.26168 2.77324 -0.0691455 -1.26665 -7.428 6.0841 -1.87389 -7.41861 12.6646 -0.593265 -0.0 0.0 -0.0 2.8261 24.7457 6.62444 -3.37925 -41.1626 63.9179 1.54755 -37.4715 0.52492 -49.8054 -4.049 4.67269 2.62897 -3.62956 16.3772 -0.0 0.0 -0.0 11.1331 -25.9277 -17.9903 -24.304 3.85565 -55.9963 0.344194 9.67629 -0.0291337 -49.5499 4.01913 -4.65915 4.89382 -31.7097 -42.1424 0.0 0.0 0.0 -10.4236 16.7918 -11.9941 -5.12366 0.176788 0.766196 21.1018 -27.5526 -3.47814 16.7076 -0.0 -0.0 -0.0 0.0 -0.0 24.6181 11.2517 -7.80374 -3.51949 -0.128824 -0.524685 1.22769 -17.3601 0.181355 -18.5836 0.0 0.0 0.0 0.0 0.0 
711.676 675.411 -1565.56 -63.6252 85.5861 66.0373 2.79507 -0.0675066 -1.2416 2.79593 0.01163 -1.24338 2.79544 0.213241 -1.22501 2.79335 0.0171128 -1.24331 -7.40511 7.81548 -3.21734 -7.37317 16.8446 -1.57231 -0.0 0.0 -0.0 2.39062 24.0431 6.01449 -6.74569 -42.0184 62.782 1.4048 -34.832 0.440688 -49.9728 -4.0686 4.68148 2.50194 -3.70492 15.4563 -0.0 0.0 -0.0 11.6595 -26.077 -18.7226 -22.7097 4.10941 -56.146 0.376809 10.5734 -0.0348673 -50.4431 4.12381 -4.70588 4.50949 -31.2159 -39.2766 0.0 0.0 0.0 -7.23712 14.1732 -13.0175 -11.936 0.304563 1.80314 21.6167 -22.9452 -3.37741 19.9063 -0.0 -0.0 -0.0 0.0 -0.0 24.3196 11.624 -8.40879 -3.90868 -0.141082 -0.583156 5.69467 -19.3233 0.836608 -18.7142 0.0 0.0 0.0 0.0 0.0 
702.009 674.792 -1575.05 -63.8335 84.6319 65.9859 3.07471 0.0350221 -1.10587 3.07538 0.105316 -1.1014 3.07311 0.277469 -1.07107 3.07153 0.104842 -1.10145 -4.54637 10.4193 -4.53547 -4.3071 22.5312 -2.94084 -0.0 0.0 -0.0 1.76205 23.6005 5.13591 -9.24181 -42.7314 62.5795 1.29049 -32.5881 0.377234 -50.6502 -4.14817 4.71648 2.18261 -2.07423 13.9092 -0.0 0.0 -0.0 12.0485 -26.1389 -19.2791 -22.7503 6.99788 -56.4589 0.381946 10.7142 -0.0358161 -52.6809 4.38911 -4.81572 4.99548 -31.5276 -42.9315 0.0 0.0 0.0 -4.82897 7.36555 -13.472 -19.1101 0.305166 2.90315 23.2881 -20.666 -3.52609 23.8501 -0.0 -0.0 -0.0 0.0 -0.0 24.0702 12.3025 -9.09891 -2.19317 -0.0840689 -0.326058 8.11186 -21.9111 1.19534 -20.4338 0.0 0.0 0.0 0.0 0.0 
691.212 676.614 -1579.95 -64.6091 84.1304 66.367 3.198 0.147541 -0.953244 3.19849 0.207897 -0.941926 3.19487 0.35175 -0.898178 3.1938 0.205492 -0.942453 -6.51547 12.2236 -5.70095 -6.33241 26.7851 -3.35433 -0.0 0.0 -0.0 1.95769 23.3603 5.39139 -12.8145 -42.2299 60.8442 1.18913 -30.4995 0.324198 -49.8756 -4.05722 4.67638 2.27551 -4.50264 13.5473 -0.0 0.0 -0.0 12.2533 -26.1115 -19.5902 -20.8648 7.80493 -57.1514 0.421401 11.7914 -0.0435157 -52.8662 4.41126 -4.82435 4.37496 -30.9035 -38.2959 0.0 0.0 0.0 -1.1194 7.07414 -14.2688 -23.8087 0.231011 3.62012 23.0926 -18.4629 -3.43465 25.2842 -0.0 -0.0 -0.0 0.0 -0.0 23.4393 12.1686 -8.98008 -1.80171 -0.0699805 -0.267632 10.7195 -23.1858 1.57595 -19.0529 0.0 0.0 0.0 0.0 0.0 
677.629 683.043 -1585.17 -66.5909 83.647 68.0643 3.32799 0.154265 -0.823665 3.32835 0.206363 -0.81218 3.32526 0.328312 -0.770998 3.32449 0.202431 -0.813169 -5.93135 13.6339 -6.85474 -5.60504 30.2083 -4.43112 -0.0 0.0 -0.0 1.64009 23.4321 4.95872 -15.8196 -42.5004 60.4692 1.09576 -28.4927 0.278222 -50.4822 -4.1284 4.70788 2.12625 -3.71167 12.845 -0.0 0.0 -0.0 12.2714 -25.7182 -19.7262 -18.8485 10.3721 -58.3284 0.45887 12.8065 -0.0514974 -53.7991 4.5232 -4.8667 4.67348 -31.3231 -40.4839 0.0 0.0 0.0 2.22688 4.25501 -14.7961 -30.3668 0.0298417 4.60594 24.2579 -16.0849 -3.51815 27.4849 -0.0 -0.0 -0.0 0.0 -0.0 22.6509 12.393 -9.16387 -1.06004 -0.042194 -0.157203 11.0424 -23.743 1.62613 -20.0725 0.0 0.0 0.0 0.0 0.0 
667.097 686.388 -1589.9 -65.6507 83.161 66.8652 3.43877 0.286789 -0.736509 3.43901 0.333073 -0.716769 3.43472 0.437662 -0.65814 3.43426 0.328232 -0.718998 -5.88644 14.6448 -7.77654 -5.47026 32.7393 -5.21437 -0.0 0.0 -0.0 1.4922 23.4295 4.75551 -17.6418 -42.5293 60.4395 0.946464 -25.1191 0.210863 -50.7849 -4.16405 4.72332 2.13261 -4.29124 12.6473 -0.0 0.0 -0.0 12.4517 -25.2752 -20.1219 -16.2356 12.3302 -59.1773 0.489504 13.6305 -0.0585025 -55.3318 4.70857 -4.9323 4.69335 -31.4829 -40.6321 0.0 0.0 0.0 4.76653 2.19522 -14.9899 -35.088 -0.184193 5.29852 25.4863 -14.1648 -3.62106 29.2242 -0.0 -0.0 -0.0 0.0 -0.0 22.0999 12.5672 -9.17934 -0.542749 -0.0219679 -0.0803936 12.1577 -24.6954 1.79257 -20.062 0.0 0.0 0.0 0.0 0.0 
657.509 685.223 -1594.15 -66.8374 82.6479 67.8401 3.52298 0.327544 -0.684195 3.52316 0.370416 -0.661967 3.51878 0.465408 -0.599004 3.51846 0.364968 -0.664986 -6.11412 15.773 -7.90556 -5.69725 34.9212 -5.05753 -0.0 0.0 -0.0 1.1952 23.6056 4.36104 -19.4182 -41.8312 60.3653 0.897804 -23.9766 0.190646 -50.9587 -4.18455 4.7321 2.08043 -3.82654 12.4811 -0.0 0.0 -0.0 12.3454 -24.8662 -20.0724 -14.0507 14.1252 -60.15 0.513438 14.2703 -0.0642726 -55.2562 4.69939 -4.92918 4.75579 -31.5707 -41.0985 0.0 0.0 0.0 6.8652 0.341638 -15.2381 -38.2085 -0.356743 5.74584 26.6614 -13.0018 -3.7337 30.4961 -0.0 -0.0 -0.0 0.0 -0.0 21.7902 12.6585 -9.31544 -0.222499 -0.00909808 -0.0329325 13.0611 -25.0895 1.924 -19.9982 0.0 0.0 0.0 0.0 0.0 
641.84 688.862 -1600.6 -69.9629 83.2246 70.8231 3.41723 0.384974 -0.595066 3.41733 0.422059 -0.569364 3.41307 0.503514 -0.498782 3.41297 0.418423 -0.572041 -7.4182 16.7483 -8.38732 -7.18875 37.1043 -4.85192 -0.0 0.0 -0.0 0.667297 23.7014 3.64877 -21.723 -41.993 59.9648 0.818041 -22.0593 0.159453 -51.4927 -4.24771 4.75869 2.03266 -3.61631 12.2392 -0.0 0.0 -0.0 12.5455 -23.702 -20.7011 -11.716 15.6972 -61.2224 0.514955 14.3108 -0.0646471 -54.9224 4.6589 -4.91527 4.82117 -31.0042 -41.5953 0.0 0.0 0.0 8.47857 -1.0575 -15.8291 -39.4036 -0.429263 5.91463 28.0321 -12.1085 -3.87212 31.3407 -0.0 -0.0 -0.0 0.0 -0.0 21.4339 12.4953 -8.98686 -0.113488 -0.00465631 -0.0167934 13.8686 -25.6979 2.04418 -19.9002 0.0 0.0 0.0 0.0 0.0 
634.006 682.754 -1606.81 -82.4597 83.4315 83.2753 3.4564 0.38092 -0.433838 3.45641 0.407754 -0.40872 3.45348 0.464769 -0.342498 3.45354 0.404845 -0.411601 -8.9309 17.5271 -6.22402 -9.11315 37.1178 -1.86715 -0.0 0.0 -0.0 0.607859 22.8474 3.48973 -21.8217 -41.996 60.5444 0.506229 -14.078 0.0625072 -52.8234 -4.40614 4.82236 1.9218 -1.02953 12.536 -0.0 0.0 -0.0 12.494 -22.9642 -20.8173 -9.95139 16.8584 -62.6416 0.549875 15.2374 -0.0735523 -54.445 4.60111 -4.89495 5.07182 -31.4816 -43.5318 0.0 0.0 0.0 9.9824 -2.51192 -16.3971 -40.0736 -0.471456 6.00858 29.4958 -11.6313 -4.02601 31.9545 -0.0 -0.0 -0.0 0.0 -0.0 21.165 12.3832 -8.77071 0.053739 0.00221678 0.00794877 20.0575 -25.6188 2.88649 -20.1561 0.0 0.0 0.0 0.0 0.0 
628.486 683.761 -1611.15 -81.5563 83.1788 82.1763 3.49296 0.462258 -0.340475 3.49289 0.482986 -0.310371 3.49029 0.524145 -0.234259 3.49054 0.48057 -0.314099 -9.86806 17.9795 -4.87778 -10.2837 37.1111 -0.0375055 -0.0 0.0 -0.0 0.447412 22.607 3.24402 -22.0173 -42.0696 61.7885 0.317215 -8.93057 0.024772 -53.7375 -4.5158 4.86396 1.85779 0.756739 12.8126 -0.0 0.0 -0.0 12.4058 -22.142 -20.8895 -7.83333 17.8642 -63.7187 0.599681 16.5449 -0.0871904 -54.0173 4.54949 -4.87634 5.25452 -31.6768 -44.9876 0.0 0.0 0.0 11.3554 -3.29443 -16.4324 -39.9034 -0.460634 5.98476 30.5274 -11.2639 -4.13085 32.3603 -0.0 -0.0 -0.0 0.0 -0.0 20.9194 12.2522 -9.14092 0.195838 0.0081135 0.0289577 23.8029 -25.7861 3.37406 -20.4949 0.0 0.0 0.0 0.0 0.0 
620.615 681.261 -1613.15 -90.0 83.2429 90.0 3.70635 0.446116 -0.203351 3.70626 0.458151 -0.174551 3.7049 0.478787 -0.105513 3.70518 0.456115 -0.179806 -10.5741 17.2809 -5.18375 -11.0643 36.026 -0.277344 -0.0 0.0 -0.0 0.353653 21.1435 2.96673 -23.5797 -41.4732 63.0853 0.188995 -5.34872 0.00882798 -53.9378 -4.53991 4.87284 2.04504 2.11469 14.6309 -0.0 0.0 -0.0 12.1597 -21.2583 -20.7078 -6.60942 18.6564 -64.5895 0.775631 21.0179 -0.143882 -52.9656 4.42316 -4.82895 5.76022 -31.8918 -49.2941 0.0 0.0 0.0 13.3211 -3.00884 -16.2734 -40.3666 -0.490258 6.04953 30.1531 -7.99949 -4.02531 32.6764 -0.0 -0.0 -0.0 0.0 -0.0 19.9446 12.2858 -9.26136 -0.220005 -0.00899638 -0.0325633 23.7979 -26.1912 3.38171 -23.2426 0.0 0.0 0.0 0.0 0.0 
